<svg preserveAspectRatio="xMidYMid meet" width="100%" height="100%" overflow="visible" style="display: block;" viewBox="0 0 18 18" fill="none" xmlns="http://www.w3.org/2000/svg">
<g id="Frame" clip-path="url(#clip0_0_21)">
<g id="Vector">
</g>
<path id="Vector_2" d="M13.5005 6.75C14.1395 6.75 14.4732 7.4895 14.0877 7.96725L14.0307 8.03025L9.5307 12.5303C9.40156 12.6594 9.22973 12.737 9.04746 12.7484C8.86519 12.7599 8.68501 12.7044 8.5407 12.5925L8.4702 12.5303L3.9702 8.03025L3.90795 7.95975L3.86745 7.902L3.82695 7.83L3.8142 7.803L3.79395 7.75275L3.76995 7.67175L3.76245 7.632L3.75495 7.587L3.75195 7.54425V7.45575L3.7557 7.41225L3.76245 7.36725L3.76995 7.32825L3.79395 7.24725L3.8142 7.197L3.8667 7.098L3.91545 7.0305L3.9702 6.96975L4.0407 6.9075L4.09845 6.867L4.17045 6.8265L4.19745 6.81375L4.2477 6.7935L4.3287 6.7695L4.36845 6.762L4.41345 6.7545L4.4562 6.7515L13.5005 6.75Z" fill="var(--fill-0, #4F5E71)"/>
</g>
<defs>
<clipPath id="clip0_0_21">
<rect width="18" height="18" fill="white"/>
</clipPath>
</defs>
</svg>
